<svg height="548pt" viewBox="0.00 0.00 325.78 548.00" width="326pt" xmlns="http://www.w3.org/2000/svg" xmlns:xlink="http://www.w3.org/1999/xlink">
<g class="graph" id="graph0" transform="scale(1 1) rotate(0) translate(4 544)">
<title>%3</title>
<polygon fill="#ffffff" points="-4,4 -4,-544 321.7808,-544 321.7808,4 -4,4" stroke="transparent"/>
<!-- node0 -->
<g class="node" id="node1">
<title>node0</title>
<ellipse cx="127" cy="-18" fill="none" rx="54.5904" ry="18" stroke="#000000"/>
<text fill="#000000" font-family="Times,serif" font-size="14.00" text-anchor="middle" x="127" y="-13.8">predict-class</text>
</g>
<!-- node1 -->
<g class="node" id="node2">
<title>node1</title>
<ellipse cx="206" cy="-450" fill="none" rx="107.7028" ry="18" stroke="#000000"/>
<text fill="#000000" font-family="Times,serif" font-size="14.00" text-anchor="middle" x="206" y="-445.8">dense_convolution_layer_1</text>
</g>
<!-- node8 -->
<g class="node" id="node9">
<title>node8</title>
<ellipse cx="206" cy="-378" fill="none" rx="111.562" ry="18" stroke="#000000"/>
<text fill="#000000" font-family="Times,serif" font-size="14.00" text-anchor="middle" x="206" y="-373.8">dilated_convolution_layer_1</text>
</g>
<!-- node1&#45;&gt;node8 -->
<g class="edge" id="edge8">
<title>node1-&gt;node8</title>
<path d="M206,-431.8314C206,-424.131 206,-414.9743 206,-406.4166" fill="none" stroke="#000000"/>
<polygon fill="#000000" points="209.5001,-406.4132 206,-396.4133 202.5001,-406.4133 209.5001,-406.4132" stroke="#000000"/>
</g>
<!-- node2 -->
<g class="node" id="node3">
<title>node2</title>
<ellipse cx="127" cy="-162" fill="none" rx="72.4635" ry="18" stroke="#000000"/>
<text fill="#000000" font-family="Times,serif" font-size="14.00" text-anchor="middle" x="127" y="-157.8">gru-pooling-layer</text>
</g>
<!-- node5 -->
<g class="node" id="node6">
<title>node5</title>
<ellipse cx="127" cy="-90" fill="none" rx="50.7224" ry="18" stroke="#000000"/>
<text fill="#000000" font-family="Times,serif" font-size="14.00" text-anchor="middle" x="127" y="-85.8">dense-layer</text>
</g>
<!-- node2&#45;&gt;node5 -->
<g class="edge" id="edge2">
<title>node2-&gt;node5</title>
<path d="M127,-143.8314C127,-136.131 127,-126.9743 127,-118.4166" fill="none" stroke="#000000"/>
<polygon fill="#000000" points="130.5001,-118.4132 127,-108.4133 123.5001,-118.4133 130.5001,-118.4132" stroke="#000000"/>
</g>
<!-- node3 -->
<g class="node" id="node4">
<title>node3</title>
<polygon fill="none" points="76.4431,-252 19.5569,-252 19.5569,-216 76.4431,-216 76.4431,-252" stroke="#000000"/>
<text fill="#000000" font-family="Times,serif" font-size="14.00" text-anchor="middle" x="48" y="-229.8">lengths</text>
</g>
<!-- node3&#45;&gt;node2 -->
<g class="edge" id="edge11">
<title>node3-&gt;node2</title>
<path d="M67.935,-215.8314C77.7925,-206.8473 89.8248,-195.8812 100.4511,-186.1965" fill="none" stroke="#000000"/>
<polygon fill="#000000" points="102.8556,-188.7406 107.8889,-179.4177 98.1403,-183.5669 102.8556,-188.7406" stroke="#000000"/>
</g>
<!-- node4 -->
<g class="node" id="node5">
<title>node4</title>
<ellipse cx="206" cy="-306" fill="none" rx="107.7028" ry="18" stroke="#000000"/>
<text fill="#000000" font-family="Times,serif" font-size="14.00" text-anchor="middle" x="206" y="-301.8">dense_convolution_layer_2</text>
</g>
<!-- node9 -->
<g class="node" id="node10">
<title>node9</title>
<ellipse cx="206" cy="-234" fill="none" rx="111.562" ry="18" stroke="#000000"/>
<text fill="#000000" font-family="Times,serif" font-size="14.00" text-anchor="middle" x="206" y="-229.8">dilated_convolution_layer_2</text>
</g>
<!-- node4&#45;&gt;node9 -->
<g class="edge" id="edge1">
<title>node4-&gt;node9</title>
<path d="M206,-287.8314C206,-280.131 206,-270.9743 206,-262.4166" fill="none" stroke="#000000"/>
<polygon fill="#000000" points="209.5001,-262.4132 206,-252.4133 202.5001,-262.4133 209.5001,-262.4132" stroke="#000000"/>
</g>
<!-- node5&#45;&gt;node0 -->
<g class="edge" id="edge10">
<title>node5-&gt;node0</title>
<path d="M127,-71.8314C127,-64.131 127,-54.9743 127,-46.4166" fill="none" stroke="#000000"/>
<polygon fill="#000000" points="130.5001,-46.4132 127,-36.4133 123.5001,-46.4133 130.5001,-46.4132" stroke="#000000"/>
</g>
<!-- node10 -->
<g class="node" id="node11">
<title>node10</title>
<ellipse cx="27" cy="-18" fill="none" rx="27" ry="18" stroke="#000000"/>
<text fill="#000000" font-family="Times,serif" font-size="14.00" text-anchor="middle" x="27" y="-13.8">loss</text>
</g>
<!-- node5&#45;&gt;node10 -->
<g class="edge" id="edge3">
<title>node5-&gt;node10</title>
<path d="M104.3085,-73.6621C89.3331,-62.8798 69.6431,-48.703 53.8825,-37.3554" fill="none" stroke="#000000"/>
<polygon fill="#000000" points="55.7463,-34.3845 45.5858,-31.3818 51.6561,-40.0653 55.7463,-34.3845" stroke="#000000"/>
</g>
<!-- node11 -->
<g class="node" id="node12">
<title>node11</title>
<ellipse cx="258" cy="-18" fill="none" rx="57.9805" ry="18" stroke="#000000"/>
<text fill="#000000" font-family="Times,serif" font-size="14.00" text-anchor="middle" x="258" y="-13.8">predict-proba</text>
</g>
<!-- node5&#45;&gt;node11 -->
<g class="edge" id="edge4">
<title>node5-&gt;node11</title>
<path d="M154.7817,-74.7307C173.8854,-64.2309 199.4828,-50.1622 220.4068,-38.6619" fill="none" stroke="#000000"/>
<polygon fill="#000000" points="222.275,-41.629 229.3527,-33.7451 218.9033,-35.4945 222.275,-41.629" stroke="#000000"/>
</g>
<!-- node6 -->
<g class="node" id="node7">
<title>node6</title>
<polygon fill="none" points="233,-540 179,-540 179,-504 233,-504 233,-540" stroke="#000000"/>
<text fill="#000000" font-family="Times,serif" font-size="14.00" text-anchor="middle" x="206" y="-517.8">inputs</text>
</g>
<!-- node6&#45;&gt;node1 -->
<g class="edge" id="edge5">
<title>node6-&gt;node1</title>
<path d="M206,-503.8314C206,-496.131 206,-486.9743 206,-478.4166" fill="none" stroke="#000000"/>
<polygon fill="#000000" points="209.5001,-478.4132 206,-468.4133 202.5001,-478.4133 209.5001,-478.4132" stroke="#000000"/>
</g>
<!-- node7 -->
<g class="node" id="node8">
<title>node7</title>
<polygon fill="none" points="54,-108 0,-108 0,-72 54,-72 54,-108" stroke="#000000"/>
<text fill="#000000" font-family="Times,serif" font-size="14.00" text-anchor="middle" x="27" y="-85.8">labels</text>
</g>
<!-- node7&#45;&gt;node10 -->
<g class="edge" id="edge6">
<title>node7-&gt;node10</title>
<path d="M27,-71.8314C27,-64.131 27,-54.9743 27,-46.4166" fill="none" stroke="#000000"/>
<polygon fill="#000000" points="30.5001,-46.4132 27,-36.4133 23.5001,-46.4133 30.5001,-46.4132" stroke="#000000"/>
</g>
<!-- node8&#45;&gt;node4 -->
<g class="edge" id="edge7">
<title>node8-&gt;node4</title>
<path d="M206,-359.8314C206,-352.131 206,-342.9743 206,-334.4166" fill="none" stroke="#000000"/>
<polygon fill="#000000" points="209.5001,-334.4132 206,-324.4133 202.5001,-334.4133 209.5001,-334.4132" stroke="#000000"/>
</g>
<!-- node9&#45;&gt;node2 -->
<g class="edge" id="edge9">
<title>node9-&gt;node2</title>
<path d="M186.4719,-216.2022C176.6182,-207.2217 164.5143,-196.1902 153.8039,-186.4289" fill="none" stroke="#000000"/>
<polygon fill="#000000" points="156.052,-183.7423 146.3035,-179.593 151.3368,-188.9159 156.052,-183.7423" stroke="#000000"/>
</g>
</g>
</svg>